<?xml version="1.0" standalone="no"?><!-- Generator: Gravit.io --><svg xmlns="http://www.w3.org/2000/svg" xmlns:xlink="http://www.w3.org/1999/xlink" style="isolation:isolate" viewBox="2.5046141861364974 7.654503948049085 639.9999985347766 575.4269326603888" width="639.9999985347766" height="575.4269326603888"><path d=" M 297.29747 550.86823 C 283.52243 535.43191 249.1268 505.33855 220.86277 483.99412 C 137.11867 420.75228 125.72108 411.5999 91.719238 380.29088 C 57.40587413727209 348.6949940833267 33.89871078464728 317.01830011967945 19.66393384604949 281.9196036355691 C 7.894257325902366 252.89910646313527 2.4635587893313073 221.53919010901785 2.5048478 185.95124 C 2.5493594 147.56739 5.1656152 132.77929 15.914734 110.15398 C 34.151433 71.768267 61.014996 43.244667 95.360052 25.799457 C 119.68545 13.443675 131.6827 7.9542046 172.30448 7.7296236 C 214.79777 7.4947896 223.74311 12.449347 248.73919 26.181459 C 279.1637 42.895777 310.47909 78.617167 316.95242 103.99205 L 320.95052 119.66445 L 330.81015 98.079942 C 343.101846104644 71.17116194620922 361.3393592930507 50.287617861925455 382.96568305771075 35.40307829964928 C 409.8681237668176 16.887197033188336 442.0145955772188 7.65450394804909 474.482903877324 7.654503948049085 C 507.8924546374933 7.654503948049079 541.642772163433 17.430259844678908 570.3710551652897 36.9267565098693 C 593.0127599768819 52.292586842468744 612.5350106774486 73.6964889181603 626.31244 101.11153 C 636.9951891214923 122.3686159378373 642.5046127209131 156.75338714755316 642.5046127209131 191.25868431631844 C 642.5046127209131 220.18309342876648 638.6332522418144 249.19219369377333 630.69256 270.6244 C 618.4760693819077 303.5971686884704 600.489410375445 332.35624023024263 571.1306955681637 363.03876579198106 C 545.8999906682221 389.4071457811875 512.2703614131209 417.1961083895156 466.68622 450.30098 C 439.8227967323454 469.8102065951859 411.4891976983325 493.4762714674832 387.1752986650656 515.1962339505144 C 352.947033834858 545.7728447587677 326.6850237687349 572.492663411634 323.70555 578.32901 C 317.79007 589.91654 323.42339 580.14491 297.29747 550.86823 Z " fill="rgb(255,0,0)"/></svg>