<svg xmlns="http://www.w3.org/2000/svg" xmlns:xlink="http://www.w3.org/1999/xlink" style="isolation:isolate" width="800" height="800" viewBox="0 0 800 800"><path fill="#FFF" d="M 489 780 L 401.99999999999994 707 L 352.99999999999994 637 L 303 567 L 296 532 L 307 464 L 316.99999999999994 402 L 316.99999999999994 367 L 288 342 L 275 313 L 275 280 L 217 240.99999999999997 L 176 196.99999999999997 L 146 144.99999999999997 L 146 86 L 158 120 L 176 66 L 205 39 L 196 93 L 226 53 L 223 79 L 255 66 L 239 93 L 223 163.99999999999997 L 233 208.99999999999997 L 265 246.99999999999997 L 275 240.99999999999997 L 288 172.99999999999997 L 288 208.99999999999997 L 296 253.99999999999997 L 333 287 L 357 293 L 347 246.99999999999997 L 357 196.99999999999997 L 361 235.99999999999997 L 373 305 L 407 323 L 433 323 L 460 287 L 480 223.99999999999997 L 485 253.99999999999997 L 480 287 L 531 240.99999999999997 L 540 202.99999999999997 L 500 137 L 467 86 L 500 86 L 540 137 L 563 182.99999999999997 L 579 154.99999999999997 L 573 120 L 591 127 L 584 75 L 612 112 L 626 137 L 601 188.99999999999997 L 579 246.99999999999997 L 543 280 L 504 301 L 460 329 L 467 334 L 504 313 L 525 317 L 521 342 L 489 367 L 460 378 L 445 412 L 467 447 L 543 469 L 619 491 L 653 505.99999999999994 L 662 573 L 644 648 L 601 716 L 525 753 L 473 680 L 558 637 L 591 559 L 595 505.9999999999999 L 563 494.99999999999994 L 531 484.99999999999994 L 504 476.99999999999994 L 480 463.99999999999994 L 535 540 L 477 578 L 413 608 L 373 552 L 327 345.99999999999994 L 316.9999999999999 329 L 313 309 L 333 317 L 342 333.99999999999994 L 357 366.99999999999994 L 373 366.9999999999999 L 377 377.99999999999994 L 445 377.99999999999994 L 413 434.99999999999994 L 401.9999999999999 446.99999999999994 L 401.9999999999999 480.99999999999994 L 433 484.9999999999999 L 449 463.9999999999999 L 437 438.99999999999994 L 480 356.99999999999994 L 473 345.9999999999999 L 500 338.99999999999994 L 489 780 Z"/><g style="isolation:isolate"><path fill="none" stroke="#000" stroke-linecap="square" stroke-linejoin="miter" stroke-miterlimit="3" stroke-width="1" d="M 489 780 L 401.99999999999994 707 L 352.99999999999994 637 L 303 567 L 296 532 L 307 464 L 316.99999999999994 402 L 316.99999999999994 367 L 288 342 L 275 313 L 275 280 L 217 240.99999999999997 L 176 196.99999999999997 L 146 144.99999999999997 L 146 86 L 158 120 L 176 66 L 205 39 L 196 93 L 226 53 L 223 79 L 255 66 L 239 93 L 223 163.99999999999997 L 233 208.99999999999997 L 265 246.99999999999997 L 275 240.99999999999997 L 288 172.99999999999997 L 288 208.99999999999997 L 296 253.99999999999997 L 333 287 L 357 293 L 347 246.99999999999997 L 357 196.99999999999997 L 361 235.99999999999997 L 373 305 L 407 323 L 433 323 L 460 287 L 480 223.99999999999997 L 485 253.99999999999997 L 480 287 L 531 240.99999999999997 L 540 202.99999999999997 L 500 137 L 467 86 L 500 86 L 540 137 L 563 182.99999999999997 L 579 154.99999999999997 L 573 120 L 591 127 L 584 75 L 612 112 L 626 137 L 601 188.99999999999997 L 579 246.99999999999997 L 543 280 L 504 301 L 460 329 L 467 334 L 504 313 L 525 317 L 521 342 L 489 367 L 460 378 L 445 412 L 467 447 L 543 469 L 619 491 L 653 505.99999999999994 L 662 573 L 644 648 L 601 716 L 525 753 L 473 680 L 558 637 L 591 559 L 595 505.9999999999999 L 563 494.99999999999994 L 531 484.99999999999994 L 504 476.99999999999994 L 480 463.99999999999994 L 535 540 L 477 578 L 413 608 L 373 552 L 327 345.99999999999994 L 316.9999999999999 329 L 313 309 L 333 317 L 342 333.99999999999994 L 357 366.99999999999994 L 373 366.9999999999999 L 377 377.99999999999994 L 445 377.99999999999994 L 413 434.99999999999994 L 401.9999999999999 446.99999999999994 L 401.9999999999999 480.99999999999994 L 433 484.9999999999999 L 449 463.9999999999999 L 437 438.99999999999994 L 480 356.99999999999994 L 473 345.9999999999999 L 500 338.99999999999994 L 489 780 Z" vector-effect="non-scaling-stroke"/></g></svg>