<?xml version="1.0" encoding="UTF-8" standalone="no"?>
<svg
   xmlns:dc="http://purl.org/dc/elements/1.1/"
   xmlns:cc="http://creativecommons.org/ns#"
   xmlns:rdf="http://www.w3.org/1999/02/22-rdf-syntax-ns#"
   xmlns:svg="http://www.w3.org/2000/svg"
   xmlns="http://www.w3.org/2000/svg"
   id="svg67"
   version="1.1"
   viewBox="0 0 235.70399 255.9153"
   height="255.9153mm"
   width="235.70399mm">
  <defs
     id="defs61" />
  <metadata
     id="metadata64">
    <rdf:RDF>
      <cc:Work
         rdf:about="">
        <dc:format>image/svg+xml</dc:format>
        <dc:type
           rdf:resource="http://purl.org/dc/dcmitype/StillImage" />
        <dc:title></dc:title>
      </cc:Work>
    </rdf:RDF>
  </metadata>
  <g
     transform="translate(12.018689,-2.595458)"
     id="layer1">
    <path
       style="fill:#000000;stroke-width:0.423333"
       d="m 82.717233,255.81377 c -8.35227,-2.00797 -12.497951,-3.23416 -16.227113,-4.79953 -4.772052,-2.00317 -5.282289,-2.34323 -10.794977,-7.19466 l -5.786173,-5.0921 -3.1021,-5.98759 c -1.945252,-3.75469 -4.429565,-9.62623 -6.661743,-15.74467 -3.226574,-8.84414 -3.896871,-11.25336 -7.163712,-25.74837 -1.982242,-8.79521 -3.604331,-16.92887 -3.604649,-18.0748 -2.64e-4,-1.14594 -0.285802,-3.70277 -0.634418,-5.68185 -0.348615,-1.97908 -0.634098,-5.73745 -0.634414,-8.35193 -7.94e-4,-5.74589 -1.118129,-9.92834 -2.957203,-11.06857 C 21.408209,145.74931 7.9874723,133.06952 5.8823977,129.86515 5.4167307,129.1563 3.643538,126.54199 1.9419664,124.05554 -2.5024163,117.56117 -3.2700755,115.93395 -8.4227848,102.0853 -10.765629,95.788597 -11.187371,94.023299 -11.754902,88.138384 c -0.558599,-5.792363 -0.182285,-19.399955 0.680322,-24.600978 1.117493,-6.737774 3.3307397,-15.021412 4.3923113,-16.439245 0.1932914,-0.258181 0.5963575,-1.326671 0.8956938,-2.374419 0.2993231,-1.047747 0.6660461,-2.000247 0.8149404,-2.116661 0.1488942,-0.116417 1.1042754,-1.926164 2.1230665,-4.021659 1.94671887,-4.00409 4.4636944,-7.846787 7.5308979,-11.497488 1.0092768,-1.201298 1.8363376,-2.344296 1.8378987,-2.539982 0.004,-0.499149 8.7480044,-8.685249 10.1020474,-9.457474 0.612391,-0.349249 1.208958,-0.760146 1.32573,-0.913101 0.209617,-0.274597 6.282122,-3.18133 8.605636,-4.119275 0.658876,-0.2659698 2.539293,-0.6738268 4.178701,-0.9063268 2.83319,-0.401817 3.022314,-0.375317 3.820601,0.535487 0.702294,0.8012618 0.806434,1.3851028 0.635752,3.5641538 -0.112316,1.433259 -0.51325,3.047267 -0.891074,3.586698 -0.377825,0.539405 -0.686951,1.232084 -0.686951,1.539263 0,0.307168 -0.399558,0.979157 -0.887913,1.493292 -1.429051,1.504511 -2.883662,5.234956 -3.183883,8.165304 -0.219827,2.14565 -0.157254,2.717796 0.297232,2.717796 0.316626,0 1.819299,0.394441 3.339287,0.876511 4.022015,1.275633 5.938599,3.161446 5.938599,5.843231 0,1.342784 -1.011911,2.681771 -5.63917,7.461898 -2.698545,2.787711 -7.737341,9.849533 -10.144092,14.216827 -1.968851,3.57269 -3.413327,8.022005 -4.325597,13.323753 -1.244122,7.230357 -0.265812,13.029494 3.459619,20.507659 1.825421,3.664233 2.512186,4.5261 7.727008,9.697272 5.871357,5.8222 9.281998,8.13661 10.950009,7.43052 0.398131,-0.16854 1.116776,-0.35969 1.596968,-0.42478 0.869232,-0.11787 9.448344,-2.68725 12.673552,-3.7957 8.758366,-3.01012 28.197777,-6.440498 42.004592,-7.412337 3.440418,-0.242173 8.827048,-0.672727 11.970298,-0.95681 3.14324,-0.28407 10.09648,-0.488923 15.45163,-0.455229 11.60866,0.07303 22.10634,1.29131 43.1799,5.011066 1.86267,0.32879 4.62491,0.60502 6.13832,0.61384 2.64365,0.0155 2.86315,-0.0662 5.59053,-2.07841 3.45486,-2.548887 6.08332,-5.806363 8.58999,-10.645571 2.3776,-4.590124 3.16192,-7.89516 3.16985,-13.35735 0.009,-6.064948 -0.62792,-9.955835 -2.60293,-15.905271 -1.9451,-5.859439 -4.49891,-10.051645 -8.14849,-13.376474 -0.67801,-0.617654 -1.72577,-1.670894 -2.32832,-2.340538 -0.60262,-0.669647 -1.80999,-1.672164 -2.68312,-2.227802 -0.87312,-0.555649 -1.58751,-1.23674 -1.58751,-1.513531 0,-0.276794 -0.86845,-1.323642 -1.92994,-2.326346 -1.06145,-1.002689 -1.99704,-2.15496 -2.07905,-2.560593 -0.082,-0.40563 -0.3644,-1.294471 -0.62755,-1.975215 -0.71065,-1.838534 -0.14045,-3.532553 1.86354,-5.536542 1.30024,-1.300226 2.40072,-1.94741 4.01509,-2.361166 l 2.22393,-0.569962 -0.26305,-1.645071 c -0.14467,-0.904793 -0.54356,-1.925556 -0.88634,-2.26836 -0.34281,-0.342821 -0.62329,-0.770308 -0.62329,-0.95 0,-0.293076 -3.94305,-5.837423 -5.05592,-7.109101 -0.24607,-0.281225 -0.44741,-0.70985 -0.44741,-0.952498 0,-0.242662 -0.19728,-0.441205 -0.43837,-0.441205 -0.54577,0 -2.10216,-3.5555858 -2.10004,-4.7975798 0,-0.899514 1.26352,-3.301272 2.25616,-4.293916 0.89913,-0.899124 2.74268,-1.088414 5.88099,-0.603827 4.69413,0.724837 9.15016,2.655975 11.95363,5.18044 0.47443,0.42721 1.38114,1.048464 2.01495,1.380584 4.11839,2.1580548 15.90552,12.8215608 17.82139,16.1225368 0.27475,0.473366 1.06471,1.697524 1.75551,2.720361 3.27843,4.854184 5.71495,9.928102 8.71964,18.15799 0.53276,1.459161 2.84479,10.284664 3.43802,13.12332 0.26758,1.280581 0.61323,2.423578 0.76806,2.539995 0.69069,0.519311 1.26982,6.934953 1.26833,14.051526 -0.004,11.820164 -1.00978,16.535068 -6.22302,29.128386 -3.10045,7.48946 -4.35195,9.8885 -8.35777,16.02122 -3.32515,5.0907 -6.86321,9.55867 -12.35317,15.60016 -6.00616,6.60948 -6.34969,7.64872 -5.68002,17.18224 0.24388,3.47161 0.44102,13.29434 0.43814,21.82829 l -0.005,15.51635 -1.64206,11.85337 -1.64202,11.85335 -3.87626,9.95649 -3.87623,9.9565 -7.46148,5.89319 -7.46149,5.89317 -9.67616,3.72684 -9.67614,3.72683 -11.40814,1.91072 -11.40817,1.91071 -14.72029,0.21053 -14.720237,0.2105 -11.218309,-2.69699 z m 41.909917,-1.50218 c 17.71988,-2.82269 25.40985,-4.23026 28.36326,-5.19159 0.81492,-0.26525 4.78062,-2.06908 8.81266,-4.0085 7.09792,-3.41415 7.44877,-3.64416 11.03817,-7.23625 8.88319,-8.88981 13.33775,-21.80748 15.29384,-44.35001 0.5856,-6.74859 0.60727,-35.80679 0.0304,-40.64001 -0.65704,-5.50397 -0.57153,-7.80335 0.39444,-10.61106 0.73392,-2.13313 1.53834,-3.18575 5.63123,-7.36876 5.93175,-6.06228 8.02177,-8.56255 10.98002,-13.13512 2.79093,-4.31393 6.6625,-11.23979 6.6625,-11.91857 0,-0.26761 0.83307,-1.93403 1.85126,-3.70315 1.01825,-1.76912 2.22687,-4.1691 2.68584,-5.33327 1.00523,-2.549679 3.34255,-12.02611 3.93279,-15.945399 0.47275,-3.139116 -0.0979,-18.086949 -0.87032,-22.789513 -0.6159,-3.750567 -2.77846,-11.762187 -4.28511,-15.874982 -6.95375,-18.982283 -23.37521,-36.4571738 -37.65226,-40.0675028 -3.34418,-0.845664 -3.46752,-0.848034 -4.86905,-0.0933 -2.6797,1.443104 -2.5477,1.908731 2.47154,8.7180438 4.55828,6.183908 6.61507,11.668273 4.94893,13.195842 -0.32919,0.301824 -1.68427,0.779979 -3.01129,1.06258 -1.87444,0.399162 -2.7009,0.841982 -3.70418,1.984636 -0.71027,0.80895 -1.29139,1.727025 -1.29139,2.040159 0,1.008312 3.74059,5.438765 7.76905,9.201833 6.45777,6.032302 10.93199,13.551522 13.18665,22.160979 1.9436,7.421613 1.86993,16.384257 -0.1838,22.353494 -1.62631,4.726955 -5.05781,10.050202 -9.09494,14.10896 -5.59702,5.62691 -4.32327,5.49127 -23.74194,2.52841 -2.32833,-0.35524 -6.23357,-0.85043 -8.67832,-1.10039 -2.44474,-0.24998 -6.54047,-0.67821 -9.10165,-0.95165 -2.65814,-0.2838 -11.19731,-0.4996 -19.89662,-0.50283 -12.57878,-0.005 -17.04617,0.16261 -25.583668,0.95811 -5.689028,0.53009 -10.468033,1.04065 -10.620008,1.13456 -0.151962,0.0939 -3.022023,0.56794 -6.377926,1.05337 -5.965599,0.86294 -13.257594,2.51311 -22.611587,5.117 -5.673607,1.57938 -9.598468,2.59665 -13.662949,3.54125 -2.844437,0.66106 -3.23578,0.66385 -5.124438,0.0365 C 33.422793,111.05944 27.132032,105.4287 22.715485,98.719698 18.05335,91.637636 16.36596,86.652792 15.973269,78.80195 c -0.196665,-3.931751 -0.06747,-5.46383 0.830405,-9.841788 0.595445,-2.903584 1.616535,-6.349642 2.320575,-7.83165 1.427808,-3.005556 9.472592,-15.361706 11.599032,-17.815195 4.155352,-4.794438 4.9863,-6.59675 3.416622,-7.410619 -0.407459,-0.21127 -1.69333,-0.520184 -2.857494,-0.686488 -2.919063,-0.41701 -4.479278,-1.242441 -5.678383,-3.00418 -0.979934,-1.439728 -1.00073,-1.615038 -0.508579,-4.286084 0.633436,-3.43771 2.505109,-7.645795 4.661232,-10.479755 1.924564,-2.52961 2.584061,-3.731728 2.584061,-4.710143 0,-1.359426 -3.839082,-0.535158 -8.607391,1.848072 C 18.341706,17.278869 13.51463,21.092896 9.0643101,26.174555 -1.376075,38.096101 -5.6094893,49.153005 -9.2214427,73.933628 c -0.9620493,6.600318 1.0021886,19.695206 4.5719913,30.479942 2.2284341,6.73235 8.9054444,18.68679 13.8321765,24.76496 3.4748309,4.28695 7.4251699,8.01555 13.0952719,12.36019 7.280813,5.57885 7.824176,6.47424 8.170013,13.46309 0.335993,6.78988 1.810391,20.05969 2.798649,25.18829 1.365115,7.08427 4.88224,21.93546 6.015367,25.4001 4.952833,15.14363 6.784935,19.44857 11.578899,27.20711 4.248456,6.87574 6.701907,9.70486 10.700864,12.33938 11.340122,7.47092 25.478328,10.50208 47.633801,10.21247 7.4134,-0.097 11.10027,-0.3445 15.45164,-1.03764 z m -50.1649,-15.65283 c -4.112238,-1.06705 -9.071113,-4.26535 -12.809481,-8.26169 -4.614008,-4.93239 -7.308426,-11.89966 -8.201829,-21.20844 -0.709414,-7.39178 0.139978,-11.88528 3.078379,-16.28562 3.06248,-4.58612 6.603391,-7.04565 12.308523,-8.54956 3.681287,-0.97042 3.697874,-0.9709 8.043316,-0.23251 7.603966,1.29208 12.207476,4.26926 16.981175,10.98204 5.896858,8.29215 8.182367,23.10653 4.912909,31.84495 -1.62028,4.33057 -4.991399,7.76586 -10.321048,10.5175 -2.401843,1.24005 -2.879467,1.32897 -7.641958,1.42279 -2.793995,0.055 -5.651485,-0.0483 -6.349986,-0.22946 z m 13.979084,-2.28438 c 5.768989,-3.06139 8.789278,-6.63828 10.124568,-11.99031 2.180348,-8.73922 -0.23687,-21.3857 -5.503219,-28.79188 -4.529699,-6.37021 -8.965757,-9.26708 -16.180069,-10.56605 -3.911843,-0.70436 -4.239754,-0.7039 -7.071211,0.009 -5.903928,1.48822 -9.480649,3.86556 -12.405493,8.24557 -2.925465,4.38095 -3.782739,8.72574 -3.096862,15.69541 1.156147,11.74835 5.378901,19.97449 12.862279,25.05635 5.085654,3.4536 7.425385,4.14214 13.640909,4.01426 4.477403,-0.0921 4.771091,-0.15652 7.629098,-1.67317 z m 61.463616,-2.87832 c -3.20289,-0.6545 -6.24969,-2.20712 -8.73825,-4.45295 -3.29832,-2.97655 -5.19222,-6.14953 -6.57134,-11.00929 -1.10879,-3.90707 -1.16583,-4.51327 -0.97003,-10.3082 0.21874,-6.47294 0.7976,-8.99936 3.42143,-14.93235 3.09428,-6.99683 8.64215,-12.041 15.0484,-13.6822 2.4667,-0.63195 3.10522,-0.63288 7.94925,-0.0119 6.42805,0.82451 8.59215,1.80666 12.29528,5.58002 2.37995,2.42505 2.73373,3.0251 3.75227,6.36437 1.31162,4.30019 2.26293,9.30296 2.28303,12.00635 0.0233,3.11621 -1.08801,8.39805 -2.71741,12.91623 -1.98729,5.51063 -6.27224,11.35531 -10.30915,14.06166 -4.48543,3.00708 -10.78072,4.42072 -15.44348,3.4679 z m 9.51914,-1.65041 c 4.49043,-1.38693 7.48575,-3.6328 10.89565,-8.16938 2.45427,-3.26515 3.29043,-4.81563 4.63824,-8.60045 2.35122,-6.6024 2.91336,-11.11056 2.02793,-16.26217 -0.37989,-2.21012 -1.18013,-5.5937 -1.77829,-7.51905 -0.94683,-3.04746 -1.40094,-3.82086 -3.50788,-5.9741 -3.41847,-3.49364 -5.73258,-4.54766 -11.70238,-5.33024 -6.84583,-0.89742 -9.63113,-0.2036 -14.91169,3.71446 -3.98254,2.95497 -6.73569,7.4116 -9.32172,15.08933 -0.87112,2.58638 -1.11787,4.29654 -1.29048,8.94357 -0.19761,5.31988 -0.12912,6.04143 0.92351,9.73666 1.39179,4.88573 3.11112,7.86112 6.16346,10.66621 5.02272,4.61583 10.94102,5.84336 17.86365,3.70516 z"
       id="path20" />
  </g>
</svg>
